<svg xmlns="http://www.w3.org/2000/svg" width="284" height="425" viewBox="0 0 284 425" version="1.1"><path d="M 27 95.900 L 27 191.799 30.524 197.036 C 35.523 204.464, 34.599 206.035, 23.833 208.408 C 21.596 208.902, 20.999 209.779, 20.124 213.858 C 19.550 216.532, 18.777 223.422, 18.406 229.170 L 17.730 239.621 22.865 241.755 C 25.779 242.966, 28 244.531, 28 245.373 C 28 246.189, 25.744 248.319, 22.988 250.105 C 18.187 253.216, 18.002 253.503, 18.592 256.926 C 19.729 263.514, 24.260 280.489, 25.139 281.455 C 25.618 281.980, 28.145 282.655, 30.755 282.955 C 34.752 283.414, 35.551 283.863, 35.827 285.805 C 36.006 287.073, 35.692 288.666, 35.128 289.346 C 34.564 290.026, 33.622 292.724, 33.035 295.342 L 31.968 300.103 37.692 308.097 L 43.416 316.092 48.510 315.455 C 53.527 314.829, 53.661 314.883, 57.406 319.027 C 61.175 323.199, 61.202 323.290, 60.542 329.451 L 59.877 335.666 65.688 340.036 C 68.885 342.439, 72.127 345.021, 72.894 345.775 C 74.492 347.346, 78.472 346.671, 80.691 344.452 C 83.381 341.762, 86.886 341.627, 91.564 344.033 C 95.948 346.288, 96 346.375, 96 351.499 L 96 356.683 102.250 358.496 C 105.688 359.492, 110.975 361.126, 114 362.127 L 119.500 363.945 123.354 359.473 C 128.847 353.098, 131.436 353.330, 136 360.605 L 139.500 366.185 147 365.560 C 160.471 364.438, 161.350 364.179, 163.482 360.703 C 164.562 358.941, 165.696 356.631, 166.002 355.569 C 166.393 354.208, 168.096 353.292, 171.769 352.465 C 176.937 351.301, 177.012 351.318, 180.899 354.645 C 183.054 356.490, 185.196 358.004, 185.659 358.008 C 186.122 358.012, 190.208 356.325, 194.741 354.258 L 202.982 350.500 202.991 344.820 L 203 339.140 207.453 336.916 C 211.829 334.731, 211.986 334.723, 216.523 336.456 C 221.112 338.208, 221.162 338.204, 224.446 335.860 C 226.263 334.562, 229.849 331.562, 232.414 329.193 L 237.078 324.887 235.922 319.012 C 234.854 313.580, 234.929 312.908, 236.918 310.115 C 238.850 307.401, 239.686 307.063, 245.123 306.797 L 251.176 306.500 256.588 297.038 C 259.565 291.833, 261.991 286.883, 261.981 286.038 C 261.970 285.192, 260.381 282.700, 258.449 280.500 C 255.725 277.399, 255.074 275.939, 255.549 274.002 C 256.344 270.764, 256.140 270.903, 261.649 269.873 C 264.256 269.386, 266.690 268.502, 267.057 267.908 C 267.719 266.837, 270 246.673, 270 241.892 C 270 239.917, 269.224 239.127, 266.250 238.074 C 258.612 235.369, 258.039 232.961, 264.367 230.162 C 268.059 228.529, 268.839 227.671, 269.412 224.619 C 270.058 221.176, 269.188 213.985, 266.899 203.852 L 265.850 199.205 260.175 198.352 C 255.115 197.592, 254.468 197.226, 254.205 194.967 C 254.008 193.283, 254.762 191.632, 256.455 190.043 L 259 187.651 259 93.826 L 259 0 143 0 L 27 0 27 95.900 M 37.026 8.750 C 37.053 9.535, 55.101 20.257, 95.500 43.490 C 108.700 51.081, 121.525 58.572, 124 60.137 C 126.475 61.702, 131.288 64.421, 134.696 66.179 L 140.893 69.376 146.196 66.543 C 149.113 64.984, 152.175 63.151, 153 62.469 C 153.825 61.787, 157.875 59.497, 162 57.380 C 166.125 55.263, 169.725 53.238, 170 52.881 C 170.275 52.524, 172.750 51.125, 175.500 49.773 C 180.224 47.450, 198.979 36.867, 205.500 32.844 C 207.150 31.826, 209.625 30.430, 211 29.742 C 219.985 25.243, 245.790 10.149, 246.523 8.963 C 246.903 8.348, 209.146 8, 142.059 8 C 84.277 8, 37.012 8.338, 37.026 8.750 M 93.250 11.031 C 91.079 11.904, 91 12.392, 91 24.854 L 91 37.772 97.925 41.886 C 105.799 46.564, 107.582 46.892, 108.550 43.843 C 109.056 42.248, 108.618 41.211, 106.867 39.865 C 105.565 38.864, 103.986 38.034, 103.357 38.022 C 100.561 37.968, 100.735 31, 103.532 31 C 105.267 31, 107.337 27.319, 106.633 25.486 C 106.346 24.739, 104.399 23.986, 102.306 23.814 C 98.820 23.526, 98.474 23.227, 98.187 20.250 C 97.896 17.240, 98.093 17, 100.855 17 C 102.495 17, 104.548 16.727, 105.418 16.393 C 107.614 15.550, 107.399 12.284, 105.066 11.035 C 102.732 9.786, 96.352 9.784, 93.250 11.031 M 131.872 11.651 C 129.977 13.932, 129.284 59.432, 131.112 61.634 C 131.904 62.590, 133.735 62.995, 136.374 62.800 C 141.419 62.426, 141.765 61.412, 141.900 46.610 C 141.978 38.133, 141.676 35.474, 140.536 34.610 C 139.454 33.790, 139.029 31.021, 138.907 24 C 138.817 18.775, 138.365 13.488, 137.904 12.250 C 136.917 9.603, 133.829 9.297, 131.872 11.651 M 148.748 11.163 C 147.234 11.716, 145.757 13.143, 145.465 14.334 C 145.174 15.525, 145.062 26.394, 145.217 38.487 C 145.537 63.382, 145.268 62.697, 153.506 59.551 C 160.710 56.800, 162.155 54.932, 162.742 47.621 C 163.475 38.488, 162.644 35.792, 159.215 36.187 C 156.572 36.492, 156.492 36.691, 156.206 43.750 C 156.045 47.738, 155.542 51, 155.090 51 C 154.637 51, 154.486 47.936, 154.754 44.192 C 155.141 38.786, 154.908 37.050, 153.621 35.763 C 152.400 34.542, 152.004 32.214, 152.015 26.321 C 152.031 18.295, 153.092 14.686, 154.901 16.508 C 155.442 17.054, 156.024 19.975, 156.193 23 C 156.468 27.931, 156.747 28.535, 158.887 28.837 C 162.222 29.309, 162.967 27.571, 162.985 19.285 C 162.998 13.166, 162.706 11.913, 161.066 11.035 C 158.675 9.755, 152.424 9.820, 148.748 11.163 M 178.678 11.464 C 177.589 12.554, 177.026 16.930, 176.482 28.540 C 175.646 46.388, 175.944 47.351, 181.490 44.706 C 184.738 43.157, 185 42.695, 185 38.516 C 185 36.032, 185.450 34, 186 34 C 186.550 34, 187 35.098, 187 36.441 C 187 39.618, 188.250 40.299, 191.425 38.852 C 193.714 37.809, 194 37.098, 194 32.446 C 194 28.718, 193.569 27.049, 192.500 26.638 C 191.353 26.198, 191 24.315, 191 18.638 C 191 10.377, 190.694 10, 183.990 10 C 181.874 10, 179.484 10.659, 178.678 11.464 M 70.250 11.662 C 69.437 11.990, 69 14.351, 69 18.409 C 69 23.603, 69.378 24.999, 71.250 26.721 C 77.052 32.056, 83.464 34.259, 86.887 32.091 C 88.529 31.051, 89.519 22.581, 88.583 17.588 C 87.549 12.077, 85.810 10.989, 78.179 11.079 C 74.505 11.122, 70.938 11.385, 70.250 11.662 M 110.713 11.621 C 110.321 12.013, 110 20.341, 110 30.128 C 110 46.551, 110.152 48.064, 111.972 49.760 C 114.154 51.792, 126.759 59, 128.132 59 C 128.609 59, 129 57.527, 129 55.727 C 129 53.013, 128.403 52.133, 125.500 50.570 L 122 48.685 122 41.477 C 122 35.608, 121.599 33.760, 119.842 31.526 C 118.158 29.386, 117.553 26.880, 117.092 20.141 C 116.522 11.815, 116.407 11.489, 113.963 11.204 C 112.567 11.041, 111.104 11.229, 110.713 11.621 M 165.200 12.200 C 164.350 13.050, 164 19.022, 164 32.700 C 164 53.859, 163.928 53.640, 169.905 50.549 C 172.278 49.322, 172.808 48.283, 173.346 43.799 C 174.416 34.893, 174.160 30, 172.625 30 C 170.908 30, 170 25.634, 170 17.375 C 170 11.903, 169.745 11, 168.200 11 C 167.210 11, 165.860 11.540, 165.200 12.200 M 195.706 11.627 C 195.318 12.015, 195 14.679, 195 17.545 C 195 22.394, 195.209 22.844, 198 24 C 199.650 24.683, 201 25.654, 201 26.157 C 201 26.667, 200.145 26.613, 199.066 26.035 C 195.798 24.287, 195 24.847, 195 28.892 C 195 34.390, 197.888 34.952, 205.355 30.907 C 209.581 28.619, 211 27.296, 211 25.647 C 211 22.337, 208.441 19.338, 205.036 18.657 C 203.366 18.323, 202 17.558, 202 16.958 C 202 16.272, 202.838 16.141, 204.250 16.606 C 209.043 18.183, 210.500 17.692, 210.500 14.500 L 210.500 11.500 203.456 11.210 C 199.582 11.051, 196.095 11.239, 195.706 11.627 M 75 16.814 C 75 17.390, 76.013 18.005, 77.250 18.180 C 78.781 18.398, 79.607 19.299, 79.835 21 C 80.436 25.493, 82 25.638, 82 21.200 C 82 18.514, 81.549 16.995, 80.750 16.986 C 80.063 16.979, 78.487 16.701, 77.250 16.370 C 75.965 16.025, 75 16.216, 75 16.814 M 183 21.500 C 183 23.425, 183.450 25, 184 25 C 184.550 25, 185 23.425, 185 21.500 C 185 19.575, 184.550 18, 184 18 C 183.450 18, 183 19.575, 183 21.500 M 37.013 41.143 L 37.026 50.500 43.263 53.358 C 46.693 54.930, 50.400 56.558, 51.500 56.975 C 52.600 57.392, 59.800 60.471, 67.500 63.818 C 75.200 67.164, 83.525 70.671, 86 71.609 C 88.475 72.548, 90.999 73.698, 91.609 74.164 C 92.219 74.629, 95.183 75.859, 98.197 76.896 C 101.211 77.933, 104.537 79.280, 105.588 79.890 C 109.132 81.946, 124.381 87.981, 123.300 86.900 C 122.710 86.310, 115.539 81.612, 107.364 76.459 C 99.189 71.306, 92.003 66.664, 91.396 66.142 C 90.789 65.620, 85.614 62.301, 79.896 58.766 C 74.178 55.232, 62.900 47.988, 54.833 42.670 C 46.766 37.352, 39.454 32.728, 38.583 32.393 C 37.208 31.866, 37.002 33.015, 37.013 41.143 M 239.967 37.771 C 236.373 39.822, 231.423 42.899, 228.967 44.609 C 226.510 46.320, 222.925 48.520, 221 49.499 C 219.075 50.478, 217.275 51.601, 217 51.995 C 216.725 52.389, 213.575 54.502, 210 56.691 C 195.720 65.435, 192.486 67.531, 192.167 68.250 C 191.983 68.662, 191.351 69, 190.761 69 C 190.171 69, 186.721 70.967, 183.094 73.372 C 179.467 75.776, 174.285 79.151, 171.579 80.872 C 168.872 82.592, 166.918 84, 167.238 84 C 168.261 84, 193.388 74.024, 196.500 72.383 C 198.150 71.512, 202.405 69.705, 205.956 68.367 C 209.507 67.029, 214.232 65.081, 216.456 64.038 C 222.616 61.148, 244.269 51.884, 246.250 51.291 C 247.736 50.846, 248 49.501, 248 42.383 C 248 37.773, 247.662 34.009, 247.250 34.021 C 246.838 34.032, 243.560 35.720, 239.967 37.771 M 192.500 43.493 C 182.332 49.309, 178.850 51.862, 176.515 55.214 C 174.873 57.572, 169.891 64.225, 165.444 70 C 160.997 75.775, 156.960 81.175, 156.472 82 C 155.209 84.138, 181.332 60.591, 194.989 47.282 C 201.320 41.111, 206.275 36.062, 206 36.060 C 205.725 36.059, 199.650 39.404, 192.500 43.493 M 100 55.174 C 118.334 73.272, 129 83.359, 129 82.602 C 129 81.727, 119.901 70.577, 118.853 70.167 C 118.384 69.983, 118 69.218, 118 68.466 C 118 67.715, 117.422 66.740, 116.715 66.300 C 116.008 65.860, 113.645 63.255, 111.465 60.510 C 104.725 52.028, 102.435 50.163, 92.211 44.828 C 86.521 41.859, 86.550 41.898, 100 55.174 M 128.793 67.747 C 130.556 71.980, 134.183 78.150, 134.639 77.694 C 135.746 76.588, 132.540 68.929, 130.377 67.511 C 128.244 66.113, 128.120 66.132, 128.793 67.747 M 152.677 66.750 C 152.434 67.162, 151.918 69.075, 151.531 71 C 150.879 74.239, 150.935 74.351, 152.278 72.500 C 154.299 69.717, 155.356 66, 154.126 66 C 153.572 66, 152.919 66.338, 152.677 66.750 M 141.279 72.806 C 140.483 73.312, 140.267 74.872, 140.660 77.291 C 141.496 82.446, 143 81.937, 143 76.500 C 143 74.025, 142.887 72.007, 142.750 72.015 C 142.613 72.024, 141.951 72.380, 141.279 72.806 M 37 81.481 C 37 88.434, 37.159 88.995, 39.250 89.429 C 40.487 89.687, 49.825 90.399, 60 91.013 C 70.175 91.627, 84.800 92.546, 92.500 93.055 C 100.200 93.564, 109.650 93.943, 113.500 93.897 L 120.500 93.813 114.500 92.068 C 108.262 90.254, 101.265 88.550, 46.336 75.468 C 36.641 73.159, 37 72.928, 37 81.481 M 242.500 76.239 C 240.300 76.781, 231.750 78.771, 223.500 80.660 C 195.054 87.174, 182.478 90.164, 175.500 92.075 L 168.500 93.991 197.500 93.509 C 213.450 93.244, 231.338 92.728, 237.250 92.363 L 248 91.699 248 83.349 C 248 78.757, 247.662 75.057, 247.250 75.126 C 246.838 75.196, 244.700 75.696, 242.500 76.239 M 135.142 87.159 C 131.274 89.073, 125 95.873, 125 98.150 C 125 98.618, 132.887 99, 142.526 99 L 160.051 99 158.547 96.090 C 156.511 92.154, 150.717 87.532, 146.078 86.141 C 140.929 84.599, 140.171 84.669, 135.142 87.159 M 85.511 123.979 C 83.578 127.817, 80.630 134.396, 78.961 138.598 C 75.492 147.330, 75.764 148.437, 82.662 153.683 C 86.353 156.491, 86.408 156.499, 98.933 156.078 C 126.873 155.140, 126.584 155.096, 134.379 161.445 C 141.051 166.879, 140.742 167.564, 141.649 145.329 C 142.375 127.516, 141.791 124.408, 137.149 121.356 C 133.455 118.928, 125.132 119.156, 116.093 121.932 C 109.323 124.011, 108.176 124.098, 102.753 122.948 C 99.490 122.255, 95.266 120.634, 93.366 119.344 C 91.466 118.055, 89.712 117, 89.468 117 C 89.225 117, 87.444 120.141, 85.511 123.979 M 157.813 119.683 C 158.534 119.972, 159.397 119.936, 159.729 119.604 C 160.061 119.272, 159.471 119.036, 158.417 119.079 C 157.252 119.127, 157.015 119.364, 157.813 119.683 M 194.469 120.050 C 193.520 121.586, 184.005 125.978, 181.600 125.990 C 180.554 125.996, 177.320 124.836, 174.412 123.413 C 171.504 121.991, 167.184 120.612, 164.812 120.351 C 159.235 119.736, 161.573 121.292, 168.750 122.971 C 174.096 124.222, 175.256 125.304, 172.418 126.393 C 169.686 127.442, 164.415 127.058, 159.959 125.486 C 157.598 124.653, 154.784 124.251, 153.706 124.593 C 151.650 125.246, 151.644 127.393, 153.650 143.211 L 154.247 147.923 159.428 145.040 C 162.278 143.454, 165.485 142.234, 166.555 142.329 C 168.163 142.470, 168.553 141.760, 168.808 138.235 C 169.228 132.431, 171.364 131.255, 182.250 130.836 C 191.845 130.468, 193.567 131.621, 187.841 134.582 C 185.605 135.739, 183.342 136.042, 180.091 135.623 C 174.268 134.870, 172.803 135.766, 173.572 139.610 C 174.163 142.563, 174.210 142.582, 179.334 141.928 C 182.175 141.566, 185.850 140.812, 187.500 140.252 C 197.354 136.907, 198.593 136.738, 201.659 138.323 C 203.668 139.362, 205.072 141.188, 205.981 143.942 C 207.256 147.805, 207.199 148.160, 204.914 150.606 C 199.662 156.228, 193.650 157.158, 177.552 154.841 C 171.803 154.013, 168.070 153.980, 164.500 154.723 L 159.500 155.764 168 155.893 C 172.675 155.964, 178.709 156.692, 181.409 157.511 C 188.889 159.780, 194.708 159.388, 200.469 156.227 C 206.971 152.658, 208.830 149.426, 207.323 144.309 C 205.375 137.697, 197.408 119.636, 196.272 119.257 C 195.673 119.058, 194.862 119.414, 194.469 120.050 M 149.371 122.046 C 144.364 124.524, 144.375 124.474, 143.436 149.500 L 142.761 167.500 144.919 165.250 C 146.107 164.012, 147.402 163, 147.798 163 C 148.195 163, 149.141 161.988, 149.901 160.750 C 151.246 158.560, 151.231 158.547, 149.313 160.250 C 148.229 161.213, 146.590 162, 145.671 162 C 143.533 162, 143.510 159.047, 145.530 144 C 146.379 137.675, 147.316 130.551, 147.611 128.168 C 148.097 124.243, 148.539 123.658, 152.324 121.940 C 154.621 120.897, 155.825 120.034, 155 120.023 C 154.175 120.011, 151.642 120.921, 149.371 122.046 M 158 123 C 158.825 123.533, 159.950 123.969, 160.500 123.969 C 161.050 123.969, 160.825 123.533, 160 123 C 159.175 122.467, 158.050 122.031, 157.500 122.031 C 156.950 122.031, 157.175 122.467, 158 123 M 117.750 126.080 C 116.787 126.641, 116 127.822, 116 128.705 C 116 130.109, 116.252 130.082, 118.006 128.494 C 119.110 127.496, 120.346 127.013, 120.755 127.421 C 121.163 127.829, 120.624 128.802, 119.557 129.582 C 117.638 130.985, 117.638 131.015, 119.559 132.468 C 121.456 133.903, 121.451 133.937, 119.309 133.968 C 118.104 133.986, 116.835 133.543, 116.490 132.984 C 115.572 131.498, 114 132.808, 114 135.059 C 114 137.854, 120.870 137.801, 123.279 134.987 C 124.783 133.231, 124.844 132.467, 123.758 128.987 C 122.483 124.904, 121.001 124.187, 117.750 126.080 M 129.250 126.662 C 127.833 127.234, 127.523 131, 128.893 131 C 129.384 131, 130.056 130.296, 130.386 129.437 C 131.083 127.619, 133 128.442, 133 130.559 C 133 131.352, 132.321 132, 131.492 132 C 130.245 132, 130.195 132.340, 131.204 133.955 C 132.761 136.448, 131.264 138.081, 129.558 135.748 C 127.902 133.484, 127 133.530, 127 135.879 C 127 138.372, 132.560 140.779, 134.868 139.284 C 136.094 138.491, 136.419 137.020, 136.175 133.376 C 135.730 126.729, 133.777 124.836, 129.250 126.662 M 107.500 127.873 C 105.167 128.368, 104.430 129.120, 104.184 131.255 C 103.908 133.645, 104.214 134, 106.550 134 C 108.741 134, 109.137 134.367, 108.710 136 C 108.332 137.446, 108.680 138, 109.964 138 C 111.211 138, 112.109 136.683, 112.978 133.579 C 114.760 127.215, 114.056 126.482, 107.500 127.873 M 97.500 131.884 C 94.198 136.057, 93.703 138.326, 96 138.748 C 97.569 139.037, 101.317 134.111, 102.465 130.250 C 103.519 126.710, 100.916 127.566, 97.500 131.884 M 106.500 131 C 106.160 131.550, 106.809 132, 107.941 132 C 109.073 132, 110 131.550, 110 131 C 110 130.450, 109.352 130, 108.559 130 C 107.766 130, 106.840 130.450, 106.500 131 M 149 133.637 C 149 135.858, 148.328 142.135, 147.506 147.587 C 145.369 161.766, 145.379 161.803, 150.272 157.497 L 153.045 155.058 151.891 143.279 C 150.747 131.596, 149 125.768, 149 133.637 M 113.200 141.200 C 112.540 141.860, 112 142.930, 112 143.578 C 112 144.225, 111.325 145.315, 110.500 146 C 108.682 147.509, 108.517 151.616, 110.250 152.227 C 110.938 152.470, 113.397 152.472, 115.715 152.232 C 120.402 151.748, 121.993 149.405, 120.196 145.631 C 119.638 144.459, 118.930 142.713, 118.622 141.750 C 117.980 139.740, 114.966 139.434, 113.200 141.200 M 125.612 141.531 C 123.862 143.281, 122.475 149.342, 123.460 150.935 C 123.822 151.521, 124.936 152, 125.937 152 C 126.937 152, 128.315 152.675, 129 153.500 C 129.685 154.325, 131.090 155, 132.122 155 C 133.547 155, 134 154.267, 134 151.966 C 134 149.559, 133.277 148.506, 130.501 146.868 C 128.577 145.733, 127.269 144.374, 127.594 143.848 C 127.942 143.285, 129.161 143.531, 130.557 144.446 C 133.614 146.448, 134 146.405, 134 144.059 C 134 141.870, 133.595 141.538, 129.822 140.637 C 128.044 140.213, 126.630 140.513, 125.612 141.531 M 171.079 141.583 C 171.127 142.748, 171.364 142.985, 171.683 142.188 C 171.972 141.466, 171.936 140.603, 171.604 140.271 C 171.272 139.939, 171.036 140.529, 171.079 141.583 M 197.189 143.750 C 198.566 148.777, 199.912 151.172, 200.987 150.508 C 201.980 149.894, 198.177 140, 196.947 140 C 196.515 140, 196.624 141.688, 197.189 143.750 M 103.500 142.746 C 97.644 143.587, 96.099 147.226, 100.750 149.224 C 104.496 150.833, 104.445 150.759, 103.020 152.476 C 101.976 153.733, 102.035 154, 103.355 154 C 105.539 154, 108.168 149.726, 108.350 145.879 C 108.513 142.430, 108.002 142.100, 103.500 142.746 M 114.500 143 C 114.160 143.550, 114.584 144, 115.441 144 C 116.298 144, 117 143.550, 117 143 C 117 142.450, 116.577 142, 116.059 142 C 115.541 142, 114.840 142.450, 114.500 143 M 183.500 144.569 C 180.610 146.379, 178.668 146.919, 176.503 146.513 C 174.618 146.160, 172.317 146.591, 170.303 147.676 C 167.234 149.329, 167.012 149.320, 164.979 147.481 C 162.886 145.587, 162.807 145.587, 159.179 147.530 C 156.800 148.804, 155.380 150.345, 155.162 151.893 C 154.844 154.143, 155.022 154.234, 158.162 153.429 C 162.363 152.352, 174.022 152.364, 184.750 153.456 C 189.287 153.918, 193 153.961, 193 153.552 C 193 150.939, 189.649 142.006, 188.679 142.031 C 188.031 142.048, 185.700 143.190, 183.500 144.569 M 91.831 145.780 C 90.363 147.278, 88.852 149.741, 88.473 151.252 C 87.897 153.545, 88.106 154, 89.733 154 C 91.780 154, 97.566 144.900, 96.315 143.648 C 95.272 142.605, 94.653 142.900, 91.831 145.780 M 101.500 146 C 101.149 146.567, 101.990 147, 103.441 147 C 104.848 147, 106 146.550, 106 146 C 106 145.450, 105.127 145, 104.059 145 C 102.991 145, 101.840 145.450, 101.500 146 M 112.544 147.928 C 111.843 149.063, 115.582 150.377, 117.007 149.495 C 117.571 149.147, 117.774 148.443, 117.457 147.931 C 116.713 146.727, 113.288 146.725, 112.544 147.928 M 126 148.339 C 126 149.076, 127.125 150.192, 128.500 150.818 C 130.538 151.747, 131 151.690, 131 150.514 C 131 149.720, 130.130 148.605, 129.066 148.035 C 126.527 146.676, 126 146.729, 126 148.339 M 76.240 154.013 C 79.005 158.440, 92.688 161.107, 110.863 160.760 C 124.213 160.505, 124.600 160.559, 129.257 163.296 C 131.874 164.835, 134.747 167.211, 135.643 168.578 C 136.538 169.944, 137.471 170.862, 137.715 170.618 C 138.760 169.573, 134.360 164.708, 130.108 162.209 C 125.643 159.584, 125.080 159.507, 112 159.734 C 96.326 160.006, 83.760 158.005, 78.430 154.388 C 75.443 152.361, 75.180 152.316, 76.240 154.013 M 36.215 163.250 L 36.500 173.500 43.718 177.500 C 62.566 187.945, 96.400 207.179, 111 215.750 C 116.225 218.817, 125.216 223.987, 130.979 227.239 C 142.834 233.928, 140.414 233.985, 153.500 226.705 C 156.800 224.869, 163.100 221.436, 167.500 219.075 C 175.714 214.668, 185.112 209.027, 186 207.971 C 186.275 207.644, 191.675 204.648, 198 201.313 C 204.325 197.978, 211.075 194.247, 213 193.022 C 214.925 191.798, 221.675 187.939, 228 184.448 C 234.325 180.956, 241.412 176.963, 243.750 175.574 L 248 173.049 248 163.004 L 248 152.959 244.250 154.990 C 242.188 156.107, 239.825 157.457, 239 157.991 C 236.385 159.681, 209.920 174.058, 200.020 179.166 C 194.784 181.868, 188.700 185.095, 186.500 186.337 C 180.639 189.647, 166.860 197.057, 156 202.740 C 150.775 205.475, 145.108 208.532, 143.407 209.534 L 140.314 211.356 133.907 207.792 C 125.613 203.178, 111.595 195.282, 106.500 192.355 C 104.300 191.091, 100.373 188.917, 97.774 187.524 C 95.174 186.130, 89.999 183.032, 86.274 180.639 C 82.548 178.246, 74.775 173.796, 69 170.751 C 63.225 167.705, 56.925 164.378, 55.001 163.356 C 53.076 162.335, 51.276 161.213, 51.001 160.862 C 50.330 160.008, 37.523 153, 36.632 153 C 36.246 153, 36.058 157.613, 36.215 163.250 M 206.500 155.583 C 199.530 161.418, 198.025 161.582, 171.450 159.402 C 164.842 158.860, 162.783 159.055, 159.950 160.494 C 155.671 162.667, 146.891 169.224, 147.476 169.809 C 147.713 170.047, 149.616 168.918, 151.704 167.301 C 160.597 160.412, 162.542 159.688, 170.327 160.374 C 193.167 162.384, 197.381 162.359, 201.530 160.187 C 206.009 157.843, 212.024 153.072, 210.500 153.072 C 209.950 153.072, 208.150 154.202, 206.500 155.583 M 209.932 157.582 C 207.489 160.526, 197.575 164.720, 176.184 171.859 C 155.309 178.825, 154.795 178.941, 151.281 177.473 C 146.360 175.417, 146.038 176.262, 150.906 178.458 L 154.833 180.228 175.166 173.479 C 196.036 166.551, 208.651 161.148, 211.624 157.863 C 212.551 156.839, 212.845 156, 212.277 156 C 211.710 156, 210.654 156.712, 209.932 157.582 M 153 158 C 152.175 158.533, 151.950 158.969, 152.500 158.969 C 153.050 158.969, 154.175 158.533, 155 158 C 155.825 157.467, 156.050 157.031, 155.500 157.031 C 154.950 157.031, 153.825 157.467, 153 158 M 88.500 164.953 C 107.874 171.710, 114.848 174.342, 119.500 176.654 C 121.700 177.747, 125.440 179.253, 127.810 180.001 C 131.694 181.225, 132.436 181.176, 135.310 179.505 C 140.168 176.681, 145.115 172.781, 144.553 172.219 C 144.277 171.943, 141.552 173.645, 138.498 176.002 L 132.945 180.286 128.222 178.691 C 124.140 177.312, 104.382 169.515, 98.500 166.962 C 97.400 166.485, 94.925 165.646, 93 165.098 C 91.075 164.549, 86.843 163.178, 83.595 162.050 C 80.347 160.923, 76.972 160.016, 76.095 160.035 C 75.218 160.054, 80.800 162.267, 88.500 164.953 M 109.882 163.016 C 116.902 163.627, 119.571 164.413, 126.313 167.858 C 130.740 170.120, 134.491 171.843, 134.647 171.686 C 134.803 171.530, 133.034 170.171, 130.716 168.666 C 124.652 164.730, 114.902 161.974, 107.645 162.144 C 101.693 162.283, 101.764 162.310, 109.882 163.016 M 234.750 163.392 C 232.503 165.098, 232.539 165.641, 235.246 170.750 C 237.630 175.251, 239.980 176.090, 243.250 173.608 C 245.530 171.877, 245.457 170.586, 242.816 165.886 C 240.491 161.750, 237.949 160.964, 234.750 163.392 M 169.718 164.092 C 164.994 165.204, 160.787 167.347, 158.928 169.587 C 158.143 170.533, 156.151 171.895, 154.500 172.614 C 152.545 173.466, 152.130 173.935, 153.309 173.961 C 154.303 173.982, 156.778 172.670, 158.809 171.045 C 164.232 166.703, 169.520 164.813, 178.500 164.006 L 186.500 163.287 180 163.244 C 176.425 163.220, 171.798 163.602, 169.718 164.092 M 112.661 165.948 C 121.770 168.078, 126.401 170.142, 127.920 172.750 C 128.877 174.393, 128.941 174.395, 128.970 172.773 C 129.026 169.552, 120.101 165.722, 110 164.633 C 105.245 164.121, 105.605 164.299, 112.661 165.948 M 52.743 168.513 C 49.812 173.010, 48.985 176.111, 50.568 176.669 C 51.877 177.130, 56.415 167.746, 55.791 165.872 C 55.514 165.043, 54.345 166.056, 52.743 168.513 M 236 167.066 C 236 169.352, 238.165 172, 240.035 172 C 242.503 172, 242.571 169.827, 240.171 167.655 C 238.095 165.776, 236 165.480, 236 167.066 M 110.435 168.166 C 113.150 168.684, 117.200 170.340, 119.435 171.846 C 125.897 176.198, 126.686 176.556, 124.615 174.194 C 121.759 170.937, 113.077 166.985, 109.054 167.112 C 105.795 167.214, 105.909 167.302, 110.435 168.166 M 224.629 168.459 C 222.418 170.159, 222.921 173.450, 225.920 176.908 C 227.006 178.160, 228.051 179.653, 228.242 180.225 C 228.715 181.644, 234.578 178.542, 235.382 176.447 C 236.075 174.642, 235.388 173, 233.941 173 C 233.423 173, 233 173.852, 233 174.893 C 233 175.934, 232.248 177.074, 231.330 177.427 C 229.640 178.075, 228.043 176.545, 228.015 174.250 C 228.007 173.563, 227.550 173, 227 173 C 226.450 173, 226 172.325, 226 171.500 C 226 170.554, 226.954 170, 228.583 170 C 230.203 170, 231.013 169.534, 230.755 168.750 C 230.160 166.944, 226.806 166.785, 224.629 168.459 M 172 169.538 C 166.840 171.141, 158.955 175, 160.838 175 C 161.532 175, 163.539 174.251, 165.300 173.335 C 167.060 172.419, 171.425 170.885, 175 169.925 C 178.575 168.966, 180.375 168.171, 179 168.160 C 177.625 168.149, 174.475 168.769, 172 169.538 M 57.051 171.662 C 54.733 174.609, 53.396 178.729, 54.424 179.757 C 55.218 180.552, 59.913 175.038, 59.964 173.250 C 60.013 171.542, 63 171.655, 63 173.365 C 63 174.116, 62.100 175.874, 61 177.273 C 58.900 179.943, 58.405 182, 59.864 182 C 61.022 182, 66 174.744, 66 173.056 C 66 171.377, 63.037 169.074, 60.823 169.032 C 59.900 169.014, 58.203 170.198, 57.051 171.662 M 217.648 173.686 C 216.920 174.413, 219.645 179.702, 222.112 182.350 C 223.505 183.845, 224.307 184.093, 225.122 183.278 C 225.937 182.463, 225.669 181.561, 224.117 179.895 C 222.952 178.645, 222 177.141, 222 176.552 C 222 175.243, 218.437 172.896, 217.648 173.686 M 66.572 176.201 C 65.156 178.222, 65.194 178.577, 67.024 180.526 C 69.446 183.104, 68.407 184.678, 65.825 182.342 C 64.815 181.427, 63.710 180.957, 63.370 181.296 C 62.143 182.524, 63.973 184.955, 66.626 185.621 C 68.764 186.158, 69.743 185.800, 71.257 183.931 C 73.158 181.583, 73.156 181.544, 71.012 179.808 C 69.821 178.845, 69.147 177.571, 69.513 176.979 C 69.979 176.224, 70.606 176.258, 71.613 177.094 C 73.525 178.681, 74.623 177.456, 73.020 175.524 C 71.211 173.344, 68.363 173.643, 66.572 176.201 M 209.930 176.856 C 207.846 178.543, 207.753 178.989, 208.899 181.757 C 209.593 183.432, 211.233 185.810, 212.543 187.041 C 214.814 189.174, 215.044 189.201, 217.463 187.616 C 220.337 185.733, 220.471 185.129, 218.822 181.508 C 217.593 178.812, 215.006 178.477, 214.196 180.909 C 213.882 181.855, 214.238 182.123, 215.281 181.722 C 216.182 181.377, 217.079 181.764, 217.417 182.645 C 218.267 184.858, 218.188 185, 216.115 185 C 215.078 185, 213.468 183.837, 212.537 182.415 C 210.992 180.058, 210.982 179.678, 212.422 178.087 C 215.486 174.701, 213.688 173.813, 209.930 176.856 M 75.678 177.656 C 75.322 178.011, 75.728 178.812, 76.579 179.434 C 77.931 180.423, 77.740 181.052, 75.063 184.420 C 71.989 188.289, 71.299 190, 72.813 190 C 74.082 190, 79 184.537, 79 183.128 C 79 182.297, 79.724 182.095, 81.118 182.538 C 84.183 183.510, 83.128 181.317, 79.395 178.953 C 77.706 177.884, 76.033 177.300, 75.678 177.656 M 240 181.603 C 227.371 188.404, 196.230 205.822, 190.500 209.290 C 179.268 216.088, 165.229 224, 164.393 224.004 C 162.478 224.013, 154.860 229.795, 155.909 230.444 C 157.708 231.556, 157.157 239.230, 155.027 242.724 C 151.358 248.741, 141.640 250.615, 135.378 246.512 C 132.209 244.436, 130 239.314, 130 234.043 L 130 230.022 121.750 225.885 C 117.213 223.609, 113.275 221.432, 113 221.045 C 112.725 220.659, 111.150 219.647, 109.500 218.796 C 107.850 217.946, 104.925 216.433, 103 215.436 C 101.075 214.439, 96.615 211.653, 93.089 209.245 C 89.564 206.837, 84.164 203.592, 81.089 202.033 C 78.015 200.475, 67.243 194.430, 57.151 188.600 C 47.059 182.770, 38.219 178, 37.508 178 C 34.009 178, 35.989 185.257, 40.512 189.010 C 42.618 190.758, 42.377 193.324, 39.339 201.493 C 36.642 208.745, 33.452 212, 29.041 212 C 26.202 212, 25.148 214.101, 24.419 221.211 L 23.741 227.835 28.731 230.364 C 34.117 233.093, 34.963 235.016, 34.989 244.582 C 34.999 248.391, 34.663 248.882, 29.944 251.939 C 24.416 255.521, 24.345 255.896, 27.473 264.964 C 28.655 268.391, 28.866 268.509, 34.338 268.800 C 40.520 269.128, 40.493 269.103, 43.857 277.637 L 45.800 282.565 42.783 286.989 C 39.781 291.392, 39.775 291.427, 41.528 294.682 C 44.658 300.493, 46.412 301.493, 51.047 300.104 C 53.270 299.438, 55.856 299.176, 56.794 299.522 C 57.732 299.868, 61.046 303.043, 64.158 306.576 L 69.816 313.001 68.177 318.126 L 66.538 323.251 70.019 326.164 C 75.036 330.364, 77.283 330.649, 81.288 327.594 C 83.158 326.167, 85.222 325, 85.873 325 C 86.964 325, 98.858 330.642, 100 331.701 C 100.275 331.956, 100.725 334.903, 101 338.251 L 101.500 344.337 106.500 346.091 C 114.851 349.020, 116.321 348.684, 120.483 342.890 C 123.836 338.223, 124.418 337.834, 127.202 338.390 C 128.878 338.726, 131.431 339.013, 132.875 339.030 C 135.063 339.055, 136.166 340.219, 139.500 346.025 C 143.310 352.659, 143.675 352.991, 147.185 352.995 C 151.772 353.001, 155.997 351.459, 156.010 349.775 C 156.015 349.074, 157.119 346.137, 158.464 343.250 C 160.469 338.943, 161.363 338, 163.440 338 C 164.832 338, 167.890 337.494, 170.236 336.876 C 174.317 335.801, 174.730 335.908, 179.850 339.376 C 185.920 343.487, 187.379 343.696, 192.993 341.264 L 197 339.528 197.045 333.014 L 197.090 326.500 203.095 322.750 C 206.397 320.688, 209.747 319, 210.539 319 C 211.331 319, 214.341 319.898, 217.228 320.995 L 222.477 322.989 225.830 319.636 L 229.183 316.284 227.479 310.211 L 225.775 304.138 230.124 298.569 L 234.474 293 240.208 293 L 245.941 293 248.471 287.654 C 249.862 284.713, 251 281.925, 251 281.457 C 251 280.990, 249.827 278.914, 248.393 276.845 L 245.785 273.083 248.162 266.349 L 250.538 259.615 256.019 258.253 C 259.034 257.505, 262.036 256.191, 262.692 255.334 C 264.289 253.247, 265.505 243.105, 264.303 241.903 C 263.782 241.382, 261.364 240.618, 258.928 240.203 L 254.500 239.450 253.901 233.209 C 253.571 229.776, 253.024 226.691, 252.686 226.353 C 251.368 225.034, 254.301 221.881, 259.114 219.442 L 264.157 216.887 263.453 212.693 C 262.073 204.468, 261.653 204, 255.639 204 C 249.674 204, 249.806 204.139, 245.445 193.178 L 243.725 188.856 247.863 184.640 C 252.210 180.210, 253.218 176.991, 250.250 177.013 C 249.287 177.020, 244.675 179.086, 240 181.603 M 200.780 181.281 L 198.061 183.527 200.628 187.832 C 203.432 192.535, 203.435 192.465, 200.397 193.397 C 198.712 193.913, 197.759 193.233, 195.609 189.985 C 192.654 185.520, 189.748 185.383, 192.578 189.843 C 194.661 193.125, 198.131 197, 198.986 197 C 199.336 197, 200.495 196.212, 201.561 195.248 C 202.628 194.285, 204.850 193.039, 206.500 192.480 C 210.856 191.004, 210.965 187.420, 206.795 182.736 L 203.500 179.035 200.780 181.281 M 83.962 184.847 C 81.294 188.174, 79.106 192.947, 79.997 193.498 C 81.278 194.290, 87.408 185.008, 86.322 183.922 C 85.791 183.391, 84.826 183.770, 83.962 184.847 M 201.416 184.250 C 201.737 184.938, 202.268 186.256, 202.598 187.181 C 203.362 189.325, 206.029 190.371, 207.354 189.046 C 208.047 188.353, 207.617 187.221, 206.012 185.513 C 203.574 182.917, 200.386 182.041, 201.416 184.250 M 90 186.893 C 90 187.384, 90.688 188.050, 91.528 188.372 C 92.805 188.862, 92.614 189.626, 90.368 193.020 C 88.463 195.899, 87.992 197.392, 88.748 198.148 C 89.505 198.905, 90.497 198.033, 92.155 195.151 C 94.070 191.824, 94.904 191.189, 96.747 191.651 C 99.963 192.458, 99.547 191.651, 95.196 188.636 C 91.159 185.838, 90 185.450, 90 186.893 M 185.490 190.383 C 183.650 191.729, 183.665 191.894, 186.049 196.419 C 188.047 200.211, 188.943 201.018, 190.899 200.785 C 195.121 200.283, 195.720 197.687, 192.676 193.087 C 189.775 188.703, 188.463 188.210, 185.490 190.383 M 101.290 194 C 101.002 195.100, 100.424 196, 100.005 196 C 98.779 196, 96.718 201.822, 97.355 203.482 C 97.717 204.427, 99.219 205, 101.336 205 C 104.186 205, 105.156 204.362, 107.349 201.048 C 110.755 195.902, 109.059 194.892, 105.093 199.703 C 102.975 202.273, 101.704 203.104, 100.988 202.388 C 100.272 201.672, 100.738 200.192, 102.492 197.607 C 104.928 194.017, 105.056 192, 102.847 192 C 102.278 192, 101.577 192.900, 101.290 194 M 187 193.929 C 187 194.439, 187.707 195.564, 188.571 196.429 C 190.083 197.940, 192 198.539, 192 197.500 C 192 197.225, 191.100 196.100, 190 195 C 187.802 192.802, 187 192.516, 187 193.929 M 177.238 195.162 C 176.557 195.843, 176 196.959, 176 197.643 C 176 199.817, 180.142 206, 181.599 206 C 182.369 206, 183 205.796, 183 205.547 C 183 204.271, 180.566 200, 179.839 200 C 179.378 200, 179 199.325, 179 198.500 C 179 195.872, 181.711 196.888, 183 200 C 183.683 201.650, 184.909 203, 185.723 203 C 186.870 203, 186.639 202.042, 184.701 198.750 C 182.105 194.342, 179.373 193.027, 177.238 195.162 M 216 199.428 C 213.525 200.735, 208.025 203.761, 203.779 206.152 C 199.532 208.543, 190.423 213.650, 183.536 217.500 L 171.015 224.500 171.008 231.250 C 170.999 239.245, 171.947 240.543, 180.337 244.021 C 183.452 245.312, 186 246.735, 186 247.184 C 186 247.633, 186.451 248, 187.001 248 C 187.552 248, 195.067 251.440, 203.701 255.645 C 221.806 264.463, 226.536 265.555, 230.305 261.786 C 234.354 257.737, 236 249.896, 236 234.661 C 236 210.908, 231.272 196.951, 223.250 197.026 C 221.738 197.040, 218.475 198.121, 216 199.428 M 111.565 198.895 C 111.260 199.388, 111.704 200.056, 112.551 200.381 C 113.850 200.880, 113.693 201.558, 111.546 204.718 C 108.660 208.964, 108.424 210, 110.343 210 C 111.081 210, 112.532 208.427, 113.568 206.504 C 114.893 204.043, 115.951 203.167, 117.141 203.545 C 120.304 204.549, 120.258 201.923, 117.091 200.728 C 115.391 200.087, 114 199.210, 114 198.781 C 114 197.711, 112.245 197.794, 111.565 198.895 M 169.250 199.491 C 165.401 201.164, 165.342 201.578, 168.186 206.905 C 170.680 211.578, 172.315 211.939, 176.356 208.705 C 178.923 206.651, 179.049 206.286, 177.606 205.088 C 176.248 203.961, 176 203.997, 176 205.319 C 176 208.067, 173.793 208.376, 171.885 205.894 C 169.497 202.788, 169.529 201.356, 172 200.710 C 173.100 200.423, 174 199.695, 174 199.094 C 174 197.694, 173.238 197.758, 169.250 199.491 M 58.762 201.073 C 54.083 203.799, 51.686 214.125, 51.583 232 C 51.516 243.719, 51.873 247.703, 53.446 252.771 C 57.465 265.727, 61.274 266.169, 81 255.968 C 88.425 252.129, 98.775 246.852, 104 244.244 C 109.225 241.635, 114.063 238.970, 114.750 238.321 C 116.548 236.626, 116.409 228, 114.583 228 C 113.804 228, 113.017 227.625, 112.833 227.168 C 112.650 226.710, 109.125 224.381, 105 221.994 C 100.875 219.606, 93.675 215.165, 89 212.125 C 71.790 200.935, 63.931 198.062, 58.762 201.073 M 159.606 204.299 C 157.918 205.533, 157.947 205.848, 160.173 210.549 C 161.960 214.323, 163.110 215.562, 165.009 215.759 C 168.517 216.124, 170.478 214.633, 169.491 212.351 C 168.747 210.632, 168.661 210.625, 168.272 212.250 C 167.759 214.396, 166.644 214.481, 165 212.500 C 164.297 211.653, 164.193 211, 164.761 211 C 165.314 211, 166.002 210.100, 166.290 209 C 166.577 207.900, 166.405 207, 165.906 207 C 165.408 207, 165 207.450, 165 208 C 165 209.377, 162.280 209.262, 161.406 207.848 C 161.015 207.215, 161.431 206.158, 162.332 205.499 C 163.232 204.841, 163.676 204.009, 163.318 203.651 C 162.372 202.705, 161.601 202.840, 159.606 204.299 M 122.782 206.062 C 121.837 206.613, 120.298 208.677, 119.362 210.650 C 117.684 214.186, 117.694 214.261, 120.080 216.095 C 123.343 218.604, 126.211 218.469, 128.826 215.686 C 131.765 212.557, 131.640 208.649, 128.535 206.615 C 125.692 204.752, 125.123 204.698, 122.782 206.062 M 150.750 209.122 C 147.334 210.876, 145.573 214, 148 214 C 148.550 214, 149 213.550, 149 213 C 149 212.450, 149.450 212, 150 212 C 150.550 212, 151 212.659, 151 213.466 C 151 215.175, 156.864 221.469, 157.689 220.644 C 157.996 220.337, 157.944 219.504, 157.573 218.793 C 157.202 218.082, 156.053 215.925, 155.019 214 C 153.368 210.927, 153.320 210.359, 154.629 209.346 C 157.280 207.294, 154.610 207.139, 150.750 209.122 M 122.598 211.163 C 120.770 213.774, 121.343 215, 124.392 215 C 126.253 215, 126.667 214.454, 126.667 212 C 126.667 208.450, 124.772 208.060, 122.598 211.163 M 221 209.694 C 220.175 209.989, 219.042 210.797, 218.481 211.490 C 217.921 212.183, 212.746 215.112, 206.981 217.999 C 201.217 220.887, 196.275 223.531, 196 223.876 C 195.725 224.221, 194.150 225.174, 192.500 225.993 C 182.491 230.965, 178.002 234.170, 178.068 236.298 C 178.135 238.452, 184.098 241.687, 215.500 256.606 C 222.299 259.836, 225.572 259.738, 227.353 256.250 C 230.871 249.360, 232.047 233.047, 229.956 220.159 C 228.418 210.684, 226.032 207.895, 221 209.694 M 58.844 213.750 C 57.970 216.249, 57.527 223.003, 57.516 234 C 57.502 248.817, 57.713 250.908, 59.591 254.500 C 62.777 260.594, 65.987 260.434, 78.835 253.543 C 84.520 250.494, 89.582 248, 90.085 248 C 90.588 248, 91 247.605, 91 247.123 C 91 246.641, 93.362 245.250, 96.250 244.031 C 102.622 241.343, 109.144 237.042, 108.479 235.966 C 108.212 235.534, 105.182 233.619, 101.747 231.712 C 98.311 229.805, 88.394 224.140, 79.708 219.123 C 71.022 214.105, 63.070 210, 62.035 210 C 60.762 210, 59.732 211.211, 58.844 213.750 M 141.250 239.662 C 139.391 240.412, 139.736 241.782, 141.962 242.488 C 144.254 243.215, 148.327 241.338, 147.469 239.950 C 146.855 238.957, 143.395 238.797, 141.250 239.662 M 119.451 255.044 C 116.728 256.631, 112.925 258.673, 111 259.582 C 102.774 263.469, 78.650 278.417, 75.467 281.600 C 69.841 287.226, 71.170 291.524, 81.217 300.196 C 90.390 308.113, 97.805 312.438, 113.500 319.022 C 124.123 323.478, 132.061 322.043, 133.925 315.330 C 135.141 310.953, 135.285 296.529, 134.341 273.768 C 133.756 259.666, 133.497 257.975, 131.839 257.449 C 130.822 257.126, 128.732 255.804, 127.195 254.511 L 124.402 252.160 119.451 255.044 M 156.500 257.358 C 154.300 258.536, 152.203 259.911, 151.840 260.414 C 151.476 260.917, 151.367 264.517, 151.598 268.414 C 151.828 272.311, 152.463 283.150, 153.009 292.500 C 154.046 310.262, 155.045 315.902, 157.609 318.466 C 159.566 320.423, 167.866 320.474, 174.148 318.568 C 184.980 315.280, 206.534 301.922, 211.489 295.426 C 213.724 292.495, 214.127 291.147, 213.661 288.164 C 212.895 283.269, 208.714 279.738, 195.274 272.637 C 189.348 269.506, 179.550 264.264, 173.500 260.987 C 167.450 257.710, 162.050 255.071, 161.500 255.123 C 160.950 255.175, 158.700 256.181, 156.500 257.358 M 112.500 271.577 C 109.200 273.494, 105.522 275.475, 104.326 275.978 C 103.130 276.481, 98.070 279.418, 93.081 282.504 C 81.055 289.943, 80.607 291.447, 88.290 298.598 C 91.614 301.692, 97.269 305.443, 102.196 307.822 C 111.783 312.451, 115.476 313.668, 122.743 314.590 C 131.097 315.651, 131 315.904, 131 293.011 L 131 273.267 125.750 271.045 C 122.862 269.823, 120.050 268.659, 119.500 268.457 C 118.950 268.256, 115.800 269.660, 112.500 271.577 M 159.685 272.101 C 155.876 274.111, 155.871 274.121, 156.405 279.307 C 156.699 282.163, 157.223 290.101, 157.569 296.946 C 157.915 303.792, 158.588 310.417, 159.064 311.669 C 161.370 317.733, 173.922 314.674, 193.279 303.329 C 198.387 300.335, 204 294.908, 204 292.962 C 204 291.892, 199.943 288, 198.828 288 C 198.390 288, 191.268 283.950, 183 279 C 174.732 274.050, 166.962 270.020, 165.734 270.044 C 164.505 270.069, 161.783 270.994, 159.685 272.101 M 280 289.964 C 280 290.495, 277.238 293.614, 273.862 296.897 C 267.812 302.781, 267.732 302.930, 268.237 307.413 C 268.865 312.982, 266.708 317.255, 265.720 312.399 C 265.396 310.804, 264.156 307.308, 262.965 304.629 L 260.799 299.757 258.906 302.629 C 256.728 305.932, 256.502 310.967, 258.168 319.033 C 259.310 324.564, 259.272 324.766, 256.418 328.343 C 254.813 330.354, 253.220 332, 252.879 332 C 252.537 332, 251.966 329.799, 251.609 327.110 C 250.562 319.220, 245.034 313.968, 244.978 320.809 C 244.966 322.289, 244.076 324.625, 243 326 C 240.856 328.741, 240.410 334.317, 242 338.500 C 243.299 341.916, 242.256 343.759, 236.813 347.668 L 232.446 350.804 232.800 344.152 C 233.060 339.257, 232.745 336.972, 231.609 335.500 C 230.073 333.512, 230.063 333.512, 230.032 335.630 C 230.014 336.801, 227.935 340.401, 225.410 343.630 C 221.146 349.083, 220.857 349.822, 221.338 354.040 C 221.845 358.486, 221.768 358.635, 217.678 361.178 C 212.843 364.182, 207.399 367, 206.427 367 C 206.058 367, 206.301 366.342, 206.969 365.537 C 208.501 363.691, 209.581 352.477, 208.302 351.687 C 207.779 351.363, 204.573 354.256, 201.177 358.116 C 196.680 363.226, 194.835 366.178, 194.387 368.983 C 193.771 372.832, 193.766 372.836, 186.727 374.425 C 182.853 375.300, 179.464 375.798, 179.197 375.530 C 178.930 375.263, 179.471 373.055, 180.400 370.623 C 181.405 367.991, 181.824 365.148, 181.436 363.601 C 180.633 360.403, 179.407 360.249, 178.647 363.250 C 178.333 364.488, 175.848 367.260, 173.125 369.411 C 167.978 373.478, 166 376.513, 166 380.346 C 166 382.021, 165.084 382.929, 162.429 383.890 C 159.279 385.029, 158.625 384.971, 156.887 383.397 C 154.324 381.079, 147.674 381.413, 143.129 384.090 C 140.430 385.679, 139.134 385.885, 136.629 385.122 C 134.908 384.597, 131.700 383.872, 129.500 383.510 C 124.019 382.608, 121.107 380.510, 119.318 376.172 C 116.703 369.833, 113.366 366.313, 108.350 364.604 C 105.762 363.722, 102.591 363, 101.305 363 L 98.966 363 101.593 368.250 C 103.038 371.137, 105.183 374.576, 106.360 375.891 L 108.500 378.282 103.877 377.678 C 95.598 376.595, 94.218 375.449, 91.924 367.746 C 89.690 360.242, 86.299 355.889, 79.634 351.968 C 76.043 349.855, 75.811 349.829, 76.367 351.597 C 76.697 352.644, 77.412 355.862, 77.957 358.749 C 78.502 361.637, 79.635 365.327, 80.474 366.950 C 81.313 368.573, 82 370.098, 82 370.339 C 82 371.283, 70.633 366.094, 69.950 364.837 C 69.550 364.102, 68.894 360.575, 68.493 357 C 67.555 348.639, 65.522 343.617, 61.813 340.496 C 60.182 339.123, 58.544 338, 58.173 338 C 57.186 338, 58.051 355.195, 59.142 357.250 C 60.588 359.975, 58.602 359.365, 54.964 355.967 C 51.797 353.008, 51.732 352.777, 52.310 346.583 C 52.636 343.090, 52.452 338.601, 51.902 336.606 C 50.933 333.098, 43.638 324.029, 42.611 325.056 C 42.333 325.334, 41.792 329.710, 41.409 334.781 C 41.026 339.851, 40.421 344, 40.065 344 C 39.708 344, 37.485 342.032, 35.123 339.626 L 30.830 335.251 31.506 326.376 C 32.235 316.808, 31.439 313.178, 27.747 309.237 L 25.628 306.975 23.796 312.737 C 22.646 316.354, 22.190 319.804, 22.570 322 L 23.177 325.500 20.690 323.171 C 19.068 321.652, 17.961 319.223, 17.505 316.184 C 16.231 307.687, 13.308 304.065, 5.257 301.006 L 0.290 299.119 1.782 303.809 C 5.173 314.479, 6.794 317.021, 11.542 319.122 C 14.400 320.386, 16.905 322.464, 18.394 324.807 C 19.685 326.838, 21.699 329.357, 22.870 330.405 C 26.184 333.369, 25.439 334.069, 19.690 333.393 C 14.933 332.834, 14.073 333.039, 11.440 335.353 C 8.844 337.635, 8.734 337.941, 10.500 337.971 C 11.600 337.989, 15.200 339.845, 18.500 342.095 C 24.135 345.936, 24.853 346.160, 30.301 345.775 C 35.452 345.411, 36.404 345.652, 38.801 347.921 L 41.500 350.478 36.611 351.050 C 32.946 351.479, 31.130 352.310, 29.361 354.367 C 25.872 358.423, 26.280 360, 30.818 360 C 32.919 360, 37.024 360.709, 39.941 361.575 C 44.785 363.014, 45.671 363.011, 50.163 361.541 C 54.774 360.033, 56.013 360.141, 58.500 362.265 C 59.050 362.734, 61.075 364.096, 63 365.291 C 66.484 367.453, 66.488 367.465, 63.918 367.782 C 60.948 368.148, 55 373.187, 55 375.336 C 55 376.544, 56.785 376.696, 65.750 376.251 C 72.054 375.938, 77.277 375.183, 78.379 374.424 C 79.955 373.339, 81.083 373.456, 85.379 375.149 C 88.196 376.259, 90.656 377.323, 90.847 377.514 C 91.038 377.705, 89.359 378.796, 87.118 379.940 C 84.876 381.084, 82.357 383.343, 81.521 384.960 C 79.504 388.860, 79.591 389.270, 82.250 388.388 C 83.488 387.977, 87.467 387.749, 91.093 387.881 C 97.462 388.112, 97.789 388.005, 100.667 384.727 C 103.621 381.362, 103.684 381.343, 108.073 382.559 C 110.508 383.233, 113.850 384.096, 115.500 384.476 L 118.500 385.167 115.333 386.500 C 110.730 388.438, 108 391.574, 108 394.923 L 108 397.847 111.183 396.259 C 112.933 395.386, 116.646 394.487, 119.433 394.263 C 124.943 393.818, 130 392.233, 130 390.950 C 130 390.506, 130.648 389.495, 131.441 388.702 C 132.602 387.541, 133.572 387.478, 136.441 388.375 C 138.398 388.988, 140 389.768, 140 390.109 C 140 390.450, 137.906 391.528, 135.346 392.506 C 130.091 394.513, 123.592 399.954, 121.410 404.175 C 119.779 407.327, 119.965 407.415, 125.192 405.963 C 127.376 405.357, 129.137 404.144, 129.501 402.997 C 130.350 400.323, 137.931 394, 140.288 394 C 141.766 394, 141.282 394.758, 138.212 397.250 C 134.196 400.509, 131.019 405.574, 130.978 408.784 C 130.953 410.752, 127.843 417.431, 125.408 420.750 C 123.814 422.921, 123.843 423, 126.207 423 C 131.545 423, 142.989 413.329, 146.103 406.186 C 148.079 401.654, 150 401.378, 150 405.625 C 150 412.389, 158.402 421.047, 166.427 422.552 C 170.601 423.335, 170.880 422.491, 168.004 417.774 C 166.906 415.973, 166.006 413.064, 166.004 411.309 C 166.002 409.554, 165.550 407.840, 165 407.500 C 164.450 407.160, 164 405.847, 164 404.582 C 164 403.311, 162.155 400.186, 159.877 397.597 C 157.609 395.021, 155.997 392.669, 156.296 392.371 C 157.173 391.494, 163.693 394.966, 166.567 397.839 C 170.296 401.569, 181 404.613, 181 401.944 C 181 400, 174.564 394.903, 168.198 391.807 L 161.897 388.741 165.198 386.717 C 171.400 382.916, 177.124 380.814, 179.589 381.433 C 180.915 381.766, 182 382.486, 182 383.034 C 182 383.581, 183.463 384.921, 185.250 386.011 C 189.346 388.508, 198.738 388.692, 203.629 386.372 L 207.060 384.744 204.280 383.201 C 202.751 382.353, 199.025 380.408, 196 378.879 C 192.975 377.351, 191.227 376.077, 192.117 376.050 C 193.658 376.002, 201.974 372.977, 206.740 370.729 C 208.509 369.895, 209.389 370.042, 210.919 371.426 C 216.125 376.138, 226.522 375.306, 232.630 369.690 L 236.099 366.500 231.513 366.238 C 228.990 366.094, 225.596 365.419, 223.971 364.738 L 221.015 363.500 228.737 357.785 C 235.996 352.412, 236.592 352.158, 238.694 353.535 C 243.263 356.529, 255.467 354.120, 259.750 349.379 C 262.724 346.087, 262.589 344.952, 259.250 345.179 C 257.738 345.282, 253.800 345.274, 250.500 345.163 L 244.500 344.960 250.086 339.553 C 255.416 334.394, 255.863 334.172, 259.844 334.706 C 267.347 335.712, 274.421 331.527, 279.468 323.095 C 280.097 322.045, 279.955 321.919, 278.905 322.595 C 277.341 323.602, 264.004 323.857, 264.001 322.881 C 263.998 321.552, 272.240 312, 273.389 312 C 274.754 312, 279.834 306.692, 281.750 303.264 C 283.745 299.695, 283.095 289, 280.883 289 C 280.398 289, 280 289.434, 280 289.964 M 144.697 387.393 C 144.288 388.434, 144.189 389.522, 144.476 389.810 C 145.389 390.722, 146.191 389.227, 145.809 387.328 C 145.459 385.588, 145.405 385.591, 144.697 387.393 M 152.173 388.422 C 152.353 389.874, 152.950 391.048, 153.500 391.031 C 154.996 390.985, 154.707 386.736, 153.173 386.224 C 152.246 385.915, 151.945 386.578, 152.173 388.422 M 154.508 399.607 C 155.877 401.624, 157.438 404.914, 157.978 406.918 C 158.518 408.922, 159.650 411.448, 160.495 412.531 C 161.954 414.401, 161.999 414.350, 161.405 411.500 C 160.303 406.215, 156.255 398.207, 154.104 397.056 C 152.168 396.020, 152.197 396.202, 154.508 399.607 M 138.677 401.815 C 137.205 403.352, 136 405.163, 136 405.840 C 136 406.516, 137.410 405.464, 139.133 403.501 C 142.880 399.233, 142.500 397.825, 138.677 401.815 M 152 402.333 C 152 404.066, 156.652 414, 157.463 414 C 157.699 414, 157.006 411.425, 155.923 408.277 C 153.812 402.141, 152 399.395, 152 402.333 M 141.962 404.332 C 139.606 406.124, 136 411.618, 136 413.413 C 136 416.230, 139.542 413.122, 141.927 408.212 C 144.292 403.346, 144.299 402.553, 141.962 404.332" stroke="none" fill="#ffffff" fill-rule="evenodd"/></svg>